<mxfile host="app.diagrams.net" modified="2023-12-05T12:07:35.700Z" agent="Mozilla/5.0 (Windows NT 10.0; Win64; x64) AppleWebKit/537.36 (KHTML, like Gecko) Chrome/118.0.0.0 Safari/537.36" etag="fmpiprLgK1-x_KI7wi8K" version="22.1.5" type="device">
  <diagram name="PÃ¡gina-1" id="cPSNi7r_4B1eX6Dvwcpm">
    <mxGraphModel dx="1473" dy="844" grid="1" gridSize="10" guides="1" tooltips="1" connect="1" arrows="1" fold="1" page="1" pageScale="1" pageWidth="850" pageHeight="1100" math="0" shadow="0">
      <root>
        <mxCell id="0" />
        <mxCell id="1" parent="0" />
        <mxCell id="J08tAfY-yrUdoFLxVI3k-110" style="edgeStyle=none;curved=1;rounded=0;orthogonalLoop=1;jettySize=auto;html=1;exitX=0.5;exitY=1;exitDx=0;exitDy=0;fontSize=12;startSize=8;endSize=8;" edge="1" parent="1" source="J08tAfY-yrUdoFLxVI3k-102">
          <mxGeometry relative="1" as="geometry">
            <mxPoint x="264.89473684210543" y="540" as="targetPoint" />
          </mxGeometry>
        </mxCell>
        <mxCell id="J08tAfY-yrUdoFLxVI3k-111" style="edgeStyle=none;curved=1;rounded=0;orthogonalLoop=1;jettySize=auto;html=1;exitX=0.5;exitY=0;exitDx=0;exitDy=0;fontSize=12;startSize=8;endSize=8;endArrow=none;endFill=0;" edge="1" parent="1" source="J08tAfY-yrUdoFLxVI3k-102" target="J08tAfY-yrUdoFLxVI3k-104">
          <mxGeometry relative="1" as="geometry" />
        </mxCell>
        <mxCell id="J08tAfY-yrUdoFLxVI3k-102" value=":ProprietarioDAO" style="rounded=0;whiteSpace=wrap;html=1;fontSize=16;" vertex="1" parent="1">
          <mxGeometry x="180" y="320" width="170" height="60" as="geometry" />
        </mxCell>
        <mxCell id="J08tAfY-yrUdoFLxVI3k-104" value="create(nome, email, senha)" style="text;html=1;align=center;verticalAlign=middle;resizable=0;points=[];autosize=1;strokeColor=none;fillColor=none;fontSize=16;" vertex="1" parent="1">
          <mxGeometry x="155" y="170" width="220" height="30" as="geometry" />
        </mxCell>
        <mxCell id="J08tAfY-yrUdoFLxVI3k-106" value="" style="endArrow=classic;html=1;rounded=0;fontSize=12;startSize=8;endSize=8;curved=1;" edge="1" parent="1">
          <mxGeometry width="50" height="50" relative="1" as="geometry">
            <mxPoint x="250" y="210" as="sourcePoint" />
            <mxPoint x="250" y="300" as="targetPoint" />
          </mxGeometry>
        </mxCell>
        <mxCell id="J08tAfY-yrUdoFLxVI3k-107" value="&lt;font style=&quot;font-size: 14px;&quot;&gt;1. P := create(nome, email, senha)&lt;/font&gt;" style="text;html=1;align=center;verticalAlign=middle;resizable=0;points=[];autosize=1;strokeColor=none;fillColor=none;fontSize=16;" vertex="1" parent="1">
          <mxGeometry x="10" y="230" width="240" height="30" as="geometry" />
        </mxCell>
        <mxCell id="J08tAfY-yrUdoFLxVI3k-112" value="P: Proprietario" style="rounded=0;whiteSpace=wrap;html=1;fontSize=16;" vertex="1" parent="1">
          <mxGeometry x="180" y="540" width="170" height="60" as="geometry" />
        </mxCell>
        <mxCell id="J08tAfY-yrUdoFLxVI3k-113" value="2. setName(nome)" style="text;html=1;align=center;verticalAlign=middle;resizable=0;points=[];autosize=1;strokeColor=none;fillColor=none;fontSize=16;" vertex="1" parent="1">
          <mxGeometry x="280" y="418" width="160" height="30" as="geometry" />
        </mxCell>
        <mxCell id="J08tAfY-yrUdoFLxVI3k-114" value="3. setEmail(email)" style="text;html=1;align=center;verticalAlign=middle;resizable=0;points=[];autosize=1;strokeColor=none;fillColor=none;fontSize=16;" vertex="1" parent="1">
          <mxGeometry x="285" y="448" width="150" height="30" as="geometry" />
        </mxCell>
        <mxCell id="J08tAfY-yrUdoFLxVI3k-115" value="4. setPassword(senha)" style="text;html=1;align=center;verticalAlign=middle;resizable=0;points=[];autosize=1;strokeColor=none;fillColor=none;fontSize=16;" vertex="1" parent="1">
          <mxGeometry x="285" y="478" width="190" height="30" as="geometry" />
        </mxCell>
        <mxCell id="J08tAfY-yrUdoFLxVI3k-116" value="" style="endArrow=classic;html=1;rounded=0;fontSize=12;startSize=8;endSize=8;curved=1;" edge="1" parent="1">
          <mxGeometry width="50" height="50" relative="1" as="geometry">
            <mxPoint x="500" y="418" as="sourcePoint" />
            <mxPoint x="500" y="508" as="targetPoint" />
          </mxGeometry>
        </mxCell>
      </root>
    </mxGraphModel>
  </diagram>
</mxfile>
